<svg width="24" height="24" viewBox="0 0 24 24" fill="none" xmlns="http://www.w3.org/2000/svg">
<path d="M12 21C16.9706 21 21 16.9706 21 12C21 7.02944 16.9706 3 12 3C7.02944 3 3 7.02944 3 12C3 16.9706 7.02944 21 12 21Z" stroke="white" stroke-width="2" stroke-linecap="round" stroke-linejoin="round"/>
<path d="M6.65857 19.2441C7.99357 17.0325 9.87741 15.2033 12.1274 13.9341C14.3774 12.6648 16.9172 11.9985 19.5006 11.9998C20.0065 11.9998 20.5062 12.0244 20.9997 12.0737" stroke="white" stroke-width="2" stroke-linecap="round" stroke-linejoin="round"/>
<path d="M17.6277 4.97729C16.2224 6.70461 14.4494 8.09667 12.438 9.05203C10.4265 10.0074 8.22731 10.502 6.00052 10.4998C5.05202 10.5003 4.1056 10.4113 3.17383 10.2339" stroke="white" stroke-width="2" stroke-linecap="round" stroke-linejoin="round"/>
<path d="M8.05603 3.90796C10.3116 5.2314 12.1817 7.12178 13.4808 9.39142C14.7799 11.6611 15.4628 14.231 15.4616 16.8461C15.4625 18.0715 15.3135 19.2923 15.0181 20.4815" stroke="white" stroke-width="2" stroke-linecap="round" stroke-linejoin="round"/>
</svg>
