<svg width="127" height="85" viewBox="0 0 127 85" fill="none" xmlns="http://www.w3.org/2000/svg">
<path d="M107.511 7.87337C99.4163 4.68566 90.7361 2.33709 81.6605 0.991971C81.4952 0.96601 81.3301 1.03089 81.2449 1.16064C80.1286 2.86474 78.892 5.08788 78.0261 6.83526C68.2646 5.58099 58.5533 5.58099 48.992 6.83526C48.1258 5.04904 46.8444 2.86474 45.723 1.16064C45.6379 1.03522 45.4728 0.97034 45.3075 0.991971C36.2369 2.33279 27.5567 4.68136 19.4571 7.87337C19.387 7.89932 19.3269 7.94261 19.287 7.9988C2.82253 29.1101 -1.68778 49.7025 0.524828 70.0396C0.53484 70.1391 0.599916 70.2343 0.690023 70.2948C11.5528 77.1415 22.0753 81.2981 32.4024 84.0532C32.5676 84.0965 32.7427 84.0446 32.8479 83.9277C35.2908 81.0646 37.4684 78.0456 39.3355 74.8708C39.4457 74.6848 39.3405 74.4642 39.1153 74.3907C35.6612 73.2662 32.3723 71.8951 29.2086 70.3381C28.9583 70.2126 28.9383 69.9054 29.1685 69.7584C29.8343 69.3302 30.5002 68.8847 31.1359 68.4349C31.2509 68.3527 31.4112 68.3354 31.5464 68.3873C52.3308 76.5317 74.8323 76.5317 95.3715 68.3873C95.5067 68.3311 95.667 68.3484 95.787 68.4305C96.4229 68.8804 97.0886 69.3302 97.7594 69.7584C97.9896 69.9054 97.9746 70.2126 97.7244 70.3381C94.5606 71.9253 91.2717 73.2662 87.8126 74.3864C87.5874 74.4599 87.4873 74.6848 87.5975 74.8708C89.5046 78.0411 91.6822 81.0601 94.08 83.9234C94.1802 84.0446 94.3603 84.0965 94.5256 84.0532C104.903 81.2981 115.425 77.1415 126.288 70.2948C126.383 70.2343 126.443 70.1434 126.453 70.0439C129.101 46.532 122.018 26.1085 107.676 8.0031C107.641 7.94261 107.581 7.89932 107.511 7.87337ZM42.4393 57.6564C36.1818 57.6564 31.0257 52.7258 31.0257 46.6705C31.0257 40.6151 36.0818 35.6845 42.4393 35.6845C48.8467 35.6845 53.9528 40.6584 53.8526 46.6705C53.8526 52.7258 48.7966 57.6564 42.4393 57.6564ZM84.6389 57.6564C78.3815 57.6564 73.2255 52.7258 73.2255 46.6705C73.2255 40.6151 78.2814 35.6845 84.6389 35.6845C91.0465 35.6845 96.1524 40.6584 96.0524 46.6705C96.0524 52.7258 91.0465 57.6564 84.6389 57.6564Z" fill="white"/>
</svg>
