<svg width="106" height="96" viewBox="0 0 106 96" fill="none" xmlns="http://www.w3.org/2000/svg">
<path fill-rule="evenodd" clip-rule="evenodd" d="M53.0012 0.041626C40.4192 0.0476614 28.2496 4.16766 18.6687 11.6649C9.08784 19.1622 2.72031 29.5478 0.704726 40.9648C-1.31086 52.3817 1.15691 64.0855 7.66683 73.9834C14.1768 83.8812 24.3043 91.3277 36.2385 94.9913C38.8714 95.4431 39.8631 93.9344 39.8631 92.6516C39.8631 91.3688 39.8104 87.6496 39.7929 83.5834C25.0487 86.5282 21.9332 77.8311 21.9332 77.8311C19.5285 72.1837 16.053 70.6992 16.053 70.6992C11.2436 67.6818 16.4129 67.7383 16.4129 67.7383C21.7401 68.0852 24.5398 72.7646 24.5398 72.7646C29.2614 80.2111 36.9406 78.057 39.9596 76.7984C40.4336 73.6439 41.8115 71.4979 43.3298 70.2797C31.552 69.0534 19.1774 64.8743 19.1774 46.2054C19.1044 41.3638 21.0588 36.6816 24.6363 33.1276C24.0922 31.9013 22.2754 26.9477 25.1541 20.2191C25.1541 20.2191 29.6037 18.9122 39.7315 25.2131C48.4185 23.0293 57.584 23.0293 66.271 25.2131C76.39 18.9122 80.8308 20.2191 80.8308 20.2191C83.7182 26.9315 81.9016 31.8851 81.3574 33.1276C84.9462 36.6822 86.9047 41.3725 86.825 46.2216C86.825 64.9307 74.4241 69.0534 62.6288 70.2555C64.5245 71.7722 66.2183 74.7331 66.2183 79.2833C66.2183 85.8021 66.1569 91.0461 66.1569 92.6516C66.1569 93.9505 67.1135 95.4673 69.799 94.9913C81.7347 91.3272 91.8632 83.8794 98.373 73.9799C104.883 64.0804 107.349 52.3748 105.331 40.9568C103.314 29.5388 96.9428 19.1531 87.3588 11.6571C77.7747 4.16112 65.6023 0.0438359 53.0188 0.041626H53.0012Z" fill="white"/>
</svg>
