<svg width="116" height="79" viewBox="0 0 116 79" fill="none" xmlns="http://www.w3.org/2000/svg">
<path d="M36.4924 78.9063C80.2552 78.9063 104.198 48.5806 104.198 22.2902C104.198 21.4376 104.176 20.5661 104.13 19.7136C108.788 16.897 112.808 13.4082 116 9.41115C111.662 11.025 107.057 12.079 102.341 12.5371C107.306 10.0482 111.024 6.1381 112.805 1.53179C108.134 3.84682 103.025 5.47988 97.6983 6.36095C94.1091 3.17188 89.3634 1.06033 84.1952 0.352775C79.0269 -0.35478 73.7238 0.381065 69.1058 2.44654C64.4877 4.51202 60.812 7.79209 58.6469 11.7796C56.4818 15.7672 55.9479 20.2401 57.1277 24.5068C47.6687 24.1099 38.415 22.0551 29.9666 18.4758C21.5181 14.8965 14.0635 9.87246 8.08602 3.72945C5.04793 8.10951 4.11827 13.2926 5.48598 18.2252C6.85369 23.1578 10.4161 27.4699 15.4493 30.2851C11.6707 30.1848 7.97488 29.3341 4.66719 27.8033V28.0495C4.6638 32.6461 6.56414 37.1018 10.0452 40.6592C13.5262 44.2166 18.3731 46.6562 23.7619 47.5632C20.2616 48.364 16.5879 48.4807 13.0251 47.9042C14.5457 51.8573 17.5043 55.3148 21.4879 57.7941C25.4715 60.2734 30.2814 61.6509 35.2463 61.7343C26.8174 67.2709 16.4052 70.2739 5.68672 70.2597C3.78589 70.2573 1.88693 70.1599 0 69.9679C10.8888 75.8095 23.5554 78.912 36.4924 78.9063Z" fill="white"/>
</svg>
