<svg width="29" height="23" viewBox="0 0 29 23" fill="none" xmlns="http://www.w3.org/2000/svg">
<path d="M12.3023 0.480011C4.97578 0.480011 0.579956 6.35715 0.579956 9.29601C0.579956 12.2349 2.04504 14.4389 4.97578 14.4389C7.90652 14.4389 9.37218 15.1732 9.37218 17.3772C9.37218 20.3154 11.5698 22.5194 14.5005 22.5194C24.0253 22.5194 28.4205 17.3772 28.4205 12.2349C28.42 3.41887 21.0922 0.480011 12.3023 0.480011ZM10.4707 3.41887C10.7115 3.41918 10.95 3.46691 11.1723 3.55936C11.3947 3.65181 11.5967 3.78715 11.7668 3.95767C11.9369 4.12818 12.0717 4.33053 12.1636 4.55315C12.2555 4.77577 12.3026 5.01431 12.3023 5.25515C12.3023 6.27015 11.4822 7.09201 10.4707 7.09201C9.45918 7.09201 8.63906 6.26957 8.63906 5.25515C8.63875 5.01431 8.68589 4.77577 8.77777 4.55315C8.86965 4.33053 9.00449 4.12818 9.17457 3.95767C9.34465 3.78715 9.54666 3.65181 9.76905 3.55936C9.99144 3.46691 10.2299 3.41918 10.4707 3.41887ZM16.331 3.41887C16.5719 3.41918 16.8103 3.46691 17.0327 3.55936C17.2551 3.65181 17.4571 3.78715 17.6271 3.95767C17.7972 4.12818 17.9321 4.33053 18.0239 4.55315C18.1158 4.77577 18.163 5.01431 18.1627 5.25515C18.163 5.49604 18.116 5.73464 18.0241 5.95733C17.9323 6.18002 17.7974 6.38244 17.6273 6.55301C17.4573 6.72359 17.2552 6.85898 17.0328 6.95147C16.8104 7.04395 16.5719 7.09171 16.331 7.09201C16.0902 7.09163 15.8518 7.04382 15.6294 6.9513C15.407 6.85878 15.2051 6.72338 15.0351 6.55281C14.865 6.38224 14.7303 6.17985 14.6384 5.9572C14.5466 5.73455 14.4996 5.49599 14.5 5.25515C14.4993 4.76886 14.6919 4.30222 15.0353 3.95787C15.3786 3.61352 15.8447 3.41964 16.331 3.41887ZM22.1925 6.35715C22.4334 6.35738 22.672 6.40508 22.8945 6.49753C23.117 6.58998 23.319 6.72536 23.4892 6.89595C23.6594 7.06653 23.7942 7.26897 23.8861 7.4917C23.978 7.71443 24.0251 7.95307 24.0247 8.19401C24.0251 8.43492 23.978 8.67354 23.8861 8.89624C23.7942 9.11893 23.6593 9.32133 23.4892 9.49187C23.319 9.66241 23.1169 9.79774 22.8944 9.89012C22.6719 9.98251 22.4334 10.0301 22.1925 10.0303C21.9517 10.0301 21.7132 9.98237 21.4908 9.88995C21.2684 9.79752 21.0665 9.66217 20.8964 9.49163C20.7264 9.32109 20.5916 9.11871 20.4998 8.89606C20.408 8.67341 20.361 8.43484 20.3614 8.19401C20.361 7.95315 20.408 7.71456 20.4998 7.49187C20.5916 7.26919 20.7263 7.06677 20.8964 6.89619C21.0664 6.7256 21.2684 6.5902 21.4908 6.49771C21.7132 6.40522 21.9516 6.35746 22.1925 6.35715ZM5.34234 7.82687C5.58312 7.8271 5.8215 7.87477 6.04385 7.96716C6.26621 8.05955 6.46818 8.19485 6.63822 8.36533C6.80827 8.5358 6.94305 8.73811 7.03488 8.9607C7.12671 9.18329 7.17378 9.42179 7.1734 9.66257C7.1734 10.6776 6.35328 11.4994 5.34234 11.4994C4.3314 11.4994 3.5107 10.677 3.5107 9.66257C3.51023 9.17628 3.70293 8.7097 4.04641 8.36546C4.3899 8.02122 4.85604 7.82749 5.34234 7.82687ZM14.5 15.1732C15.7139 15.1732 16.6976 16.1592 16.6976 17.3777C16.6976 18.5946 15.7139 19.5812 14.5 19.5812C13.286 19.5812 12.3023 18.5946 12.3023 17.3777C12.3018 17.0887 12.3582 16.8023 12.4684 16.5351C12.5786 16.2678 12.7403 16.0249 12.9444 15.8201C13.1485 15.6154 13.3909 15.4529 13.6578 15.3419C13.9247 15.2309 14.2109 15.1735 14.5 15.1732Z" fill="black"/>
</svg>
