<svg width="28" height="27" viewBox="0 0 28 27" fill="none" xmlns="http://www.w3.org/2000/svg">
<path d="M23 0H5C2.23858 0 0 2.23858 0 5V22C0 24.7614 2.23858 27 5 27H23C25.7614 27 28 24.7614 28 22V5C28 2.23858 25.7614 0 23 0Z" fill="black"/>
<path d="M9.375 6.125V8.375H7.125V6.125H9.375ZM6 5V9.5H10.5V5H6ZM15 7.8125V10.0625H12.75V7.8125H15ZM11.625 6.6875V11.1875H16.125V6.6875H11.625ZM9.375 12.875V15.125H7.125V12.875H9.375ZM6 11.75V16.25H10.5V11.75H6Z" fill="#FC4F4F"/>
<path d="M17.25 9.5V12.875H13.875V16.25H10.5V20.75H21.75V9.5H17.25ZM15 14H17.25V16.25H15V14ZM13.875 19.625H11.625V17.375H13.875V19.625ZM17.25 19.625H15V17.375H17.25V19.625ZM20.625 19.625H18.375V17.375H20.625V19.625ZM20.625 16.25H18.375V14H20.625V16.25ZM18.375 12.875V10.625H20.625V12.875H18.375Z" fill="#FC4F4F"/>
</svg>
