<svg width="28" height="27" viewBox="0 0 28 27" fill="none" xmlns="http://www.w3.org/2000/svg">
<path d="M23 0H5C2.23858 0 0 2.23858 0 5V22C0 24.7614 2.23858 27 5 27H23C25.7614 27 28 24.7614 28 22V5C28 2.23858 25.7614 0 23 0Z" fill="#FC4F4F"/>
<path d="M13.8551 13.1708C13.835 12.2181 13.633 11.2779 13.2601 10.4009C10.8802 11.512 9.13198 13.6085 8.53438 16.0823C8.88411 16.8834 9.39127 17.6062 10.0257 18.2076C10.6291 16.1099 11.9949 14.3134 13.8551 13.1708ZM12.8879 9.64883C12.4893 8.95442 11.9813 8.32882 11.3834 7.7961C8.99831 9.10114 7.58819 11.8029 8.10716 14.6672C8.98258 12.4895 10.6862 10.6839 12.8879 9.64883ZM17.805 13.9754C18.0304 11.36 17.0894 8.79977 15.2495 7.04663C14.8642 7.00208 13.897 6.9025 12.6573 7.26937C14.1741 8.84088 15.0482 10.9228 15.1079 13.1059C15.9432 13.5651 16.8587 13.8602 17.805 13.9754ZM14.5365 14.2243C13.7213 14.7192 13.0079 15.3649 12.4345 16.1268C14.5837 17.6284 17.2703 18.0949 19.7078 17.3795C20.2322 16.6771 20.6084 15.8756 20.8139 15.0236C20.1208 15.2002 19.4087 15.2917 18.6935 15.2961C17.2624 15.2935 15.8392 14.9266 14.5365 14.2243ZM11.9601 16.837C11.5617 17.5183 11.2865 18.2626 11.1187 19.0435C12.2814 19.757 13.6397 20.0851 15 19.9811C16.3602 19.8771 17.6528 19.3463 18.6935 18.4644C15.7343 18.8863 13.3649 17.8145 11.9601 16.837ZM16.6858 7.3873C18.1352 9.23217 18.8481 11.6116 18.6411 14.033C19.4396 14.0347 20.2332 13.9091 20.9921 13.6609C20.9921 13.6085 21 13.5561 21 13.5037C21 10.6787 19.1994 8.28615 16.6858 7.3873Z" fill="black"/>
</svg>
