<svg width="23" height="27" viewBox="0 0 23 27" fill="none" xmlns="http://www.w3.org/2000/svg">
<path d="M22.0564 17.1543L16.5754 14.5398L14.2577 13.4342C15.2699 12.7965 16.092 11.8123 16.63 10.6268C17.0787 9.63856 17.3108 8.56573 17.3107 7.48035C17.3107 6.8409 17.2092 6.23365 17.0678 5.64775C16.3783 2.80855 14.1611 0.716949 11.4993 0.716949C8.88797 0.716949 6.70432 2.734 5.97212 5.49235C5.80307 6.12515 5.68687 6.78315 5.68687 7.48035C5.68687 8.691 5.96967 9.81975 6.45022 10.8015C7.00567 11.9404 7.82922 12.8794 8.83162 13.4832L6.61192 14.5167L0.953122 17.1522C0.461722 17.3825 0.138672 17.9369 0.138672 18.5561V24.7738C0.138672 25.6072 0.719322 26.2827 1.43612 26.2827H9.84067V21.522C9.84183 21.4729 9.85622 21.425 9.88232 21.3834L9.87882 21.3813L11.2554 18.9971L11.2589 18.9992C11.3079 18.9152 11.395 18.8557 11.4993 18.8557C11.6036 18.8557 11.6908 18.9148 11.7398 18.9992L11.7412 18.9981L11.7538 19.0202C11.7555 19.0237 11.758 19.0265 11.7594 19.03L13.1177 21.3823L13.116 21.3834C13.1421 21.4251 13.1565 21.4731 13.1576 21.5223V26.283H21.5622C22.279 26.283 22.86 25.6075 22.86 24.7742V18.5561C22.861 17.939 22.5432 17.3899 22.0564 17.1543ZM13.117 15.5601L13.1205 15.5622L11.7436 17.9464L11.7401 17.9443C11.7162 17.9872 11.6814 18.0231 11.6392 18.0483C11.5969 18.0734 11.5488 18.0869 11.4997 18.0874C11.4505 18.0869 11.4024 18.0734 11.3602 18.0483C11.3179 18.0231 11.2831 17.9872 11.2592 17.9443L11.2575 17.9453L11.2435 17.9212C11.2424 17.9187 11.2403 17.9166 11.2393 17.9142L9.88092 15.5611L9.88232 15.5601C9.85621 15.5184 9.84182 15.4704 9.84067 15.4211C9.84067 15.2654 9.96702 15.139 10.1228 15.139H12.8759C13.0316 15.139 13.158 15.2654 13.158 15.4211C13.1574 15.4704 13.1432 15.5184 13.117 15.5601Z" fill="black"/>
</svg>
