<svg width="21" height="27" viewBox="0 0 21 27" fill="none" xmlns="http://www.w3.org/2000/svg">
<path d="M19.3611 5.44445H3.9428C3.73723 5.44153 3.53437 5.39701 3.34647 5.31357C3.15857 5.23013 2.98951 5.10949 2.8495 4.95894C2.70948 4.80839 2.60141 4.63104 2.5318 4.43759C2.46219 4.24413 2.43248 4.03858 2.44447 3.83334C2.44347 3.42488 2.59764 3.0313 2.87581 2.7322C3.15397 2.4331 3.53535 2.25082 3.9428 2.22223H19.3611C19.5748 2.22223 19.7797 2.13735 19.9308 1.98628C20.0818 1.83521 20.1667 1.63032 20.1667 1.41667C20.1667 1.20302 20.0818 0.998127 19.9308 0.847056C19.7797 0.695985 19.5748 0.611115 19.3611 0.611115H3.9428C3.10791 0.640353 2.31701 0.992701 1.73691 1.59385C1.15681 2.19499 0.832848 2.99794 0.83336 3.83334C0.825566 3.9648 0.825566 4.0966 0.83336 4.22806C0.825598 4.29227 0.825598 4.35718 0.83336 4.42139V23.1667C0.832848 24.0021 1.15681 24.805 1.73691 25.4062C2.31701 26.0073 3.10791 26.3597 3.9428 26.3889H19.3611C19.5748 26.3889 19.7797 26.304 19.9308 26.153C20.0818 26.0019 20.1667 25.797 20.1667 25.5833V6.45139V6.37889V6.30639C20.1672 6.08723 20.0841 5.87612 19.9345 5.71601C19.7848 5.55589 19.5798 5.45878 19.3611 5.44445Z" fill="black"/>
</svg>
