<svg width="76" height="94" viewBox="0 0 76 94" fill="none" xmlns="http://www.w3.org/2000/svg">
<path fill-rule="evenodd" clip-rule="evenodd" d="M37.8924 0C17.2504 0 0.53125 21.5154 0.53125 48.0792C0.53125 68.1455 10.0452 85.2713 23.5872 92.4977C25.2091 93.3632 27.6184 94.3465 28.3861 92.676C28.5651 92.2865 28.6455 91.8382 28.6455 91.4105C28.6455 86.8397 23.8674 84.1479 19.8513 81.9654C17.4137 80.6407 16.4575 78.3317 16.0361 76.8065C15.6158 75.4242 13.7945 71.1572 12.2066 70.0153C10.899 69.1138 9.03091 66.8901 12.1599 66.83C15.1021 66.7699 17.2037 70.3158 17.9042 71.7582C20.702 77.8089 24.8901 77.4104 27.4554 76.3788C28.3217 76.0305 28.882 74.7764 29.0785 73.8636C29.5722 71.571 28.0531 68.817 25.8542 68.002C19.5268 65.6568 14.1681 59.9993 14.1681 45.555C14.1681 43.0004 14.5137 40.661 15.1449 38.5438C16.3322 34.5617 17.081 30.2653 17.2657 26.1141C17.2814 25.7614 17.3057 25.3976 17.34 25.0234C17.6426 21.7193 17.0776 19.2447 20.3272 19.9148C24.2475 20.7232 30.9678 23.7998 34.9467 23.364C35.9557 23.2535 36.9707 23.1982 37.9858 23.1982C38.9722 23.1982 39.9587 23.2504 40.9396 23.3548C44.9695 23.7836 51.7227 20.6459 55.703 19.8834C58.924 19.2663 58.3163 21.6885 58.6251 24.9534C58.6605 25.3276 58.6859 25.6915 58.7027 26.0445C58.902 30.2384 59.6657 34.5792 60.8522 38.6068C61.4672 40.6945 61.8035 43.0061 61.8035 45.555C61.8035 57.2499 58.2948 63.1738 53.6084 66.2501C50.2407 68.4608 47.2794 74.1603 47.2794 78.1888C47.2794 84.6193 47.2327 89.7878 47.2327 91.4105C47.2327 91.9706 47.3707 92.5781 47.6874 93.0385C48.5832 94.3406 50.5424 93.4028 51.9424 92.6693C58.457 89.256 64.108 83.5397 68.2286 76.1549C72.7944 67.9721 75.2513 58.1529 75.2535 48.0792C75.2535 21.5154 58.5344 0 37.8924 0Z" fill="#070C0E"/>
</svg>
