<svg width="71" height="88" viewBox="0 0 71 88" fill="none" xmlns="http://www.w3.org/2000/svg">
<path d="M35.8494 5.86159C28.1081 5.86159 20.684 8.94938 15.2101 14.4457C9.73623 19.942 6.66103 27.3966 6.66103 35.1695C6.66103 38.3936 9.27465 41.0311 12.4987 41.0311C14.0469 41.0311 15.5318 41.6487 16.6266 42.7479C17.7213 43.8472 18.3364 45.3381 18.3364 46.8927V64.4775C18.3364 66.0321 17.7213 67.523 16.6266 68.6223C15.5318 69.7215 14.0469 70.3391 12.4987 70.3391H6.66103C5.11279 70.3391 3.62795 69.7215 2.53318 68.6223C1.4384 67.523 0.823364 66.0321 0.823364 64.4775V35.1695C0.823364 30.551 1.72934 25.9777 3.48956 21.7107C5.24978 17.4438 7.82978 13.5667 11.0822 10.3009C14.3347 7.03513 18.196 4.44456 22.4455 2.67712C26.6951 0.909687 31.2497 0 35.8494 0C40.4491 0 45.0037 0.909687 49.2533 2.67712C53.5028 4.44456 57.364 7.03513 60.6165 10.3009C63.869 13.5667 66.449 17.4438 68.2092 21.7107C69.9694 25.9777 70.8754 30.551 70.8754 35.1695V70.3391C70.8754 74.2255 69.3378 77.9528 66.6009 80.701C63.8639 83.4491 60.1518 84.993 56.2812 84.993H46.8864C44.9917 84.993 43.3262 86.1882 41.687 87.1385C40.7996 87.653 39.7929 87.9238 38.7682 87.9238H32.9305C31.3823 87.9238 29.8975 87.3063 28.8027 86.207C27.7079 85.1077 27.0929 83.6168 27.0929 82.0622C27.0929 80.5077 27.7079 79.0167 28.8027 77.9175C29.8975 76.8182 31.3823 76.2007 32.9305 76.2007H38.7682C39.7929 76.2007 40.7996 76.4715 41.687 76.986C43.3262 77.9363 44.9917 79.1314 46.8864 79.1314H56.2812C58.6036 79.1314 60.8308 78.2051 62.473 76.5562C62.7243 76.3039 62.9587 76.0379 63.1755 75.7598C65.1583 73.2175 62.4241 70.3391 59.2001 70.3391C57.6518 70.3391 56.167 69.7215 55.0722 68.6223C53.9774 67.523 53.3624 66.0321 53.3624 64.4775V46.8927C53.3624 45.3381 53.9774 43.8472 55.0722 42.7479C56.167 41.6487 57.6518 41.0311 59.2001 41.0311C62.4241 41.0311 65.0377 38.3936 65.0377 35.1695C65.0377 31.3208 64.2828 27.5097 62.8159 23.9539C61.349 20.3981 59.199 17.1672 56.4887 14.4457C53.7783 11.7242 50.5606 9.56539 47.0193 8.09252C43.478 6.61966 39.6824 5.86159 35.8494 5.86159Z" fill="black"/>
</svg>
